<svg role="img" viewBox="0 0 24 24" xmlns="http://www.w3.org/2000/svg">
  <title>Scrimba</title>
  <path fill="#ae8eff" d="M24 6.222a2.222 2.222 0 01-2.222 2.222h-8.89a2.222 2.222 0 010-4.444h8.89C23.005 4 24 4.995 24 6.222z"/>
  <path fill="#83d9ac" d="M16.667 9.778H13.11a2.222 2.222 0 000 4.444h3.556a2.222 2.222 0 000-4.444z"/>
  <path fill="#faba7d" d="M16.667 15.556h-8.89a2.222 2.222 0 000 4.444h8.89a2.222 2.222 0 000-4.444zM2.222 15.556a2.222 2.222 0 100 4.444 2.222 2.222 0 000-4.444z"/>
</svg>